<svg width="161" height="161" fill="none" xmlns="http://www.w3.org/2000/svg"><path d="m123.38 11.53-23.298 15.41L91.897.234 76.881 23.787l-18.34-21.07-4.138 27.626L29.08 18.554l7.457 26.92-27.93-.469 17.761 21.56L.661 77.497l24.995 12.472L6.618 110.41l27.907 1.227-9.077 26.418 25.993-10.23 2.453 27.826 19.586-19.918 13.558 24.423 9.791-26.162 22.32 16.797-1.697-27.883 27.223 6.266-12.891-24.781 27.417-5.348-21.856-17.396 22.872-16.038-27.042-7.002 14.371-23.953-27.552 4.601 3.386-27.728Z" fill="#CCB330"/></svg>