<svg width="2636" height="1115" fill="none" xmlns="http://www.w3.org/2000/svg"><path fill="#CDCDCD" d="M0 0h2636v1115H0z"/><path fill-rule="evenodd" clip-rule="evenodd" d="M1095.35 775.826c-16.17-24.278-48.93-33.782-75.28-23.425-53.005 207.28-258.26 361.779-503.383 361.779C231.329 1114.18 0 904.798 0 646.513c0-166.393 96.007-312.49 240.617-395.384C318.541 102.924 490.028 0 689.052 0c190.982 0 356.608 94.775 438.538 233.391 17.35 29.353 58.54 39.28 87.15 20.724 71.11-46.132 158.26-73.288 252.43-73.288 69.68 0 135.52 14.869 193.86 41.293 23.57 10.677 51.95 3.735 68.09-16.49 84.54-105.924 222.15-174.856 377.55-174.856 95.63 0 184.53 26.108 258.47 70.878C2450.84 38.832 2561.39 1 2682.05 1c82.91 0 161.03 17.859 229.61 49.41 123.81 33.602 228.09 108.104 293.69 206.172.8-.468 1.6-.957 2.39-1.467 71.11-46.132 158.26-73.288 252.43-73.288 69.68 0 135.52 14.869 193.86 41.293 23.57 10.677 51.95 3.735 68.09-16.49 84.54-105.924 222.15-174.856 377.55-174.856 108.48 0 208.3 33.596 287.44 89.92 18.57 13.216 43.65 13.735 62.61 1.083 85.72-57.199 191.65-91.004 306.31-91.004 285.36 0 516.69 209.381 516.69 467.666 0 258.285-231.33 467.666-516.69 467.666-143.32 0-273.01-52.816-366.61-138.116-16.89-15.391-41.82-18.722-62.19-8.369-67.28 34.197-144.91 53.698-227.56 53.698-87.06 0-168.53-21.633-238.22-59.284-22.68-12.254-51.32-7.213-68.85 11.69-79.57 85.822-198.96 140.381-332.43 140.381-132.63 0-251.35-53.871-330.93-138.757-61.25 55.701-137.91 97.508-223.7 119.743-94.78 102.149-236.94 167.089-395.85 167.089-196.02 0-366.54-98.79-454.1-244.37-67.82-6.701-131.27-26.591-187.14-56.776-22.68-12.254-51.32-7.213-68.85 11.69-79.57 85.822-198.96 140.381-332.43 140.381-157.8 0-295.92-76.258-371.82-190.279Z" fill="#3E9CA1"/></svg>