<svg width="2637" height="1115" fill="none" xmlns="http://www.w3.org/2000/svg"><path fill="#CDCDCD" d="M0 0h2637v1115H0z"/><path fill-rule="evenodd" clip-rule="evenodd" d="M-1540.65 775.826c-16.17-24.278-48.93-33.782-75.28-23.425-53 207.28-258.26 361.779-503.38 361.779-285.36 0-516.69-209.382-516.69-467.667 0-166.393 96.01-312.49 240.62-395.384C-2317.46 102.924-2145.97 0-1946.95 0c190.98 0 356.61 94.775 438.54 233.391 17.35 29.353 58.54 39.28 87.15 20.724 71.11-46.132 158.26-73.288 252.43-73.288 69.68 0 135.52 14.869 193.859 41.293 23.572 10.677 51.954 3.735 68.096-16.49C-822.339 99.706-684.729 30.774-529.332 30.774c95.635 0 184.533 26.108 258.47 70.878C-185.156 38.832-74.612 1 46.052 1c82.903 0 161.029 17.859 229.604 49.41 123.816 33.602 228.097 108.104 293.692 206.172a57.922 57.922 0 0 0 2.388-1.467c71.111-46.132 158.267-73.288 252.431-73.288 69.678 0 135.52 14.869 193.863 41.293 23.57 10.677 51.95 3.735 68.09-16.49 84.54-105.924 222.15-174.856 377.55-174.856 108.48 0 208.3 33.596 287.44 89.92 18.57 13.216 43.65 13.735 62.61 1.083 85.72-57.199 191.65-91.004 306.31-91.004 285.36 0 516.69 209.381 516.69 467.666 0 258.285-231.33 467.666-516.69 467.666-143.32 0-273.01-52.816-366.61-138.116-16.89-15.391-41.82-18.722-62.19-8.369-67.28 34.197-144.91 53.698-227.56 53.698-87.06 0-168.53-21.633-238.22-59.284-22.68-12.254-51.32-7.213-68.85 11.69-79.57 85.822-198.962 140.381-332.433 140.381-132.626 0-251.351-53.871-330.922-138.757-61.252 55.701-137.912 97.508-223.707 119.743C174.757 1050.24 32.6 1115.18-126.313 1115.18c-196.014 0-366.534-98.79-454.098-244.37-67.823-6.701-131.268-26.591-187.137-56.776-22.679-12.254-51.321-7.213-68.847 11.69-79.575 85.822-198.965 140.381-332.435 140.381-157.8 0-295.92-76.258-371.82-190.279Z" fill="#3E9CA1"/></svg>