<svg width="1440" height="619" fill="none" xmlns="http://www.w3.org/2000/svg"><path fill-rule="evenodd" clip-rule="evenodd" d="M438.862 476.442c30.797-18.79 77.698-12.973 103.028 12.872 32.239 32.895 73.667 52.817 118.925 53.144 41.287.299 79.517-15.755 110.581-43.193 24.654-21.776 64.98-25.139 93.302-8.213 26.291 15.712 55.807 24.625 87.02 24.851 24.122.175 47.273-4.854 68.742-14.224 25.8-11.262 57.88-6.907 78.29 12.593 37.54 35.856 84.72 57.37 136.02 57.741 123.16.891 223.48-120.372 224.08-270.848.59-150.477-98.76-273.185-221.91-274.076-38.19-.276-74.19 11.195-105.69 31.641-23.73 15.398-56.28 14.43-79.58-1.754-28.94-20.098-62.365-31.68-98.003-31.939-50.706-.367-97.116 22.255-132.614 59.871-22.502 23.844-62.433 29.293-92.179 15.286-20.572-9.687-42.898-15.07-66.243-15.239-23.667-.171-46.33 5.031-67.215 14.671-32.555 15.027-78.789 7.425-101.604-20.369-38.456-46.85-92.248-76.144-151.883-76.575-51.46-.373-98.74 20.809-135.683 56.366-10.466 10.074-26.203 12.48-40.232 8.576-7.529-2.095-15.243-3.209-23.1-3.266-84.363-.61-153.237 120.88-153.835 271.357-.597 150.476 67.308 272.956 151.671 273.567 45.649.33 86.762-35.088 114.978-91.505 7.612-15.22 25.533-22.699 42.099-18.656a182.852 182.852 0 0 0 42.11 5.219c35.666.258 69.324-9.838 98.925-27.898Z" fill="#3E9CA1"/></svg>