<svg width="1291" height="483" fill="none" xmlns="http://www.w3.org/2000/svg"><path fill-rule="evenodd" clip-rule="evenodd" d="M1068.89 7.533c122.32.774 221.01 107.389 220.41 238.13-.59 130.742-100.23 236.101-222.56 235.327-39.21-.249-75.986-11.37-107.846-30.674-22.09-13.385-51.029-12.912-72.99.604-29.573 18.202-63.923 28.52-100.527 28.288-55.758-.352-106.063-25.118-142.087-64.758-19.294-21.231-51.629-29.121-79.006-20.682a174.777 174.777 0 0 1-52.7 7.749c-28.81-.182-56.058-7.357-80.343-20.011-26.611-13.866-61.933-10.98-84.898 8.259-36.635 30.691-83.441 48.959-134.368 48.637-116.755-.739-210.96-98.91-210.414-219.271C2.107 98.771 97.199 1.798 213.954 2.537c41.454.262 80.065 12.807 112.602 34.266 25.125 16.571 60.692 15.573 85.465-1.43 29.22-20.056 64.036-31.593 101.368-31.357 46.104.292 88.208 18.492 120.567 48.392 21.119 19.515 53.964 25.416 80.512 14.484a187.592 187.592 0 0 1 72.845-14.172c25.437.161 49.739 5.403 72.068 14.82 23.749 10.015 52.396 6.415 72.16-10.07 37.858-31.578 85.569-50.265 137.349-49.937Z" fill="#52BDC2"/></svg>