<svg width="1329" height="483" fill="none" xmlns="http://www.w3.org/2000/svg"><path fill-rule="evenodd" clip-rule="evenodd" d="M811.898 371.492a165.07 165.07 0 0 0 30.838 2.895c19.698 0 38.636-3.479 56.306-9.892 29.393-10.669 66.482-3.307 88.017 19.365 36.111 38.022 86.471 61.617 142.161 61.617 109.88 0 198.95-91.825 198.95-205.096 0-113.272-89.07-205.096-198.95-205.096-30.69 0-59.76 7.164-85.72 19.96-28.24 13.924-66.014 8.366-89.665-12.427C923.616 16.25 884.919.297 842.736.297c-51.546 0-97.886 23.819-129.913 61.72-19.892 23.54-55.345 34.064-85.003 25.681a176.661 176.661 0 0 0-48.133-6.655 176.864 176.864 0 0 0-39.401 4.426c-24.388 5.566-51.249-1.774-68.353-20.029C434.221 25.191 382.152.3 324.645.3c-48.297 0-92.757 17.556-128.1 47.023a164.927 164.927 0 0 0-33.934-3.514c-96.652 0-175.004 83.742-175.004 187.044 0 103.301 78.352 187.044 175.004 187.044 17.069 0 33.568-2.612 49.165-7.483 32.529 22.435 71.276 35.456 112.869 35.456 25.412 0 49.761-4.86 72.279-13.758 23.391-9.243 51.078-4.956 70.76 10.703 31.269 24.876 70.027 39.597 112.003 39.597 60.981 0 115.172-31.07 149.471-79.208 17.836-25.031 52.546-37.449 82.74-31.712Z" fill="#99BE6A"/></svg>