<svg width="1681" height="608" fill="none" xmlns="http://www.w3.org/2000/svg"><path fill-rule="evenodd" clip-rule="evenodd" d="M528.355 466.261c28.558-17.789 70.315-12.34 94.039 11.599 38.07 38.415 89.315 62.103 145.77 62.46 51.49.326 98.821-18.808 135.894-50.952 22.964-19.913 58.896-23.118 84.943-7.352 33.009 19.982 71.109 31.493 111.729 31.75 31.71.201 61.95-6.48 89.49-18.732 23.52-10.465 52.15-6.477 71.31 10.774 44.02 39.638 100.76 63.675 162.79 64.067 140.79.892 255.47-120.371 256.16-270.848.68-150.476-112.9-273.184-253.69-274.076-47.57-.3-92.17 13.347-130.39 37.358-21.84 13.717-50.79 12.892-72.2-1.566-35.12-23.72-76.67-37.56-121.25-37.843-61.9-.392-118.206 25.435-159.697 67.743-21.258 21.675-56.895 26.906-84.13 13.381-27.035-13.427-57.134-21.005-88.882-21.207-32.84-.207-63.989 7.501-91.864 21.453-29.944 14.987-71.127 7.717-92.831-17.853C541.202 34.177 476.194 1.003 403.614.544c-60.488-.383-115.925 22.02-158.658 59.41-9.916 8.675-23.966 10.883-36.608 7.113-10.444-3.115-21.223-4.777-32.247-4.847C79.657 61.61.919 183.1.236 333.577c-.683 150.476 76.947 272.957 173.391 273.567 53.119.336 100.867-36.367 133.16-94.553 7.741-13.947 24.264-20.907 39.779-17.123a237.262 237.262 0 0 0 54.77 6.734c46.48.294 89.977-12.866 127.019-35.941Z" fill="#3E9CA1"/></svg>