<svg width="161" height="161" viewBox="0 0 161 161" fill="none" xmlns="http://www.w3.org/2000/svg">
<path d="M123.38 11.5304L100.082 26.9409L91.8972 0.232848L76.881 23.7874L58.5409 2.71733L54.4034 30.3431L29.079 18.5543L36.5356 45.4746L8.60557 45.0053L26.367 66.5653L0.660785 77.4967L25.6559 89.9686L6.61836 110.411L34.5253 111.638L25.4481 138.056L51.4415 127.826L53.8943 155.652L73.4797 135.734L87.0382 160.157L96.8291 133.995L119.149 150.792L117.452 122.909L144.675 129.175L131.784 104.394L159.201 99.0458L137.345 81.6496L160.217 65.6125L133.175 58.6099L147.546 34.6565L119.994 39.2583L123.38 11.5304Z" fill="#CCB330"/>
</svg>
