<svg width="2637" height="1115" viewBox="0 0 2637 1115" fill="none" xmlns="http://www.w3.org/2000/svg">
<rect width="2637" height="1115" fill="#CDCDCD"/>
<path fill-rule="evenodd" clip-rule="evenodd" d="M-1540.65 775.826C-1556.82 751.548 -1589.58 742.044 -1615.93 752.401C-1668.93 959.681 -1874.19 1114.18 -2119.31 1114.18C-2404.67 1114.18 -2636 904.798 -2636 646.513C-2636 480.12 -2539.99 334.023 -2395.38 251.129C-2317.46 102.924 -2145.97 0 -1946.95 0C-1755.97 0 -1590.34 94.7752 -1508.41 233.391C-1491.06 262.744 -1449.87 272.671 -1421.26 254.115C-1350.15 207.983 -1263 180.827 -1168.83 180.827C-1099.15 180.827 -1033.31 195.696 -974.971 222.12C-951.399 232.797 -923.017 225.855 -906.875 205.63C-822.339 99.7057 -684.729 30.7743 -529.332 30.7743C-433.697 30.7743 -344.799 56.8818 -270.862 101.652C-185.156 38.8328 -74.6128 1 46.0518 1C128.955 1 207.081 18.8589 275.656 50.4103C399.472 84.0121 503.753 158.514 569.348 256.582C570.153 256.114 570.949 255.625 571.736 255.115C642.847 208.983 730.003 181.827 824.167 181.827C893.845 181.827 959.687 196.696 1018.03 223.12C1041.6 233.797 1069.98 226.855 1086.12 206.63C1170.66 100.706 1308.27 31.7743 1463.67 31.7743C1572.15 31.7743 1671.97 65.37 1751.11 121.694C1769.68 134.91 1794.76 135.429 1813.72 122.777C1899.44 65.578 2005.37 31.7733 2120.03 31.7733C2405.39 31.7733 2636.72 241.154 2636.72 499.439C2636.72 757.724 2405.39 967.105 2120.03 967.105C1976.71 967.105 1847.02 914.289 1753.42 828.989C1736.53 813.598 1711.6 810.267 1691.23 820.62C1623.95 854.817 1546.32 874.318 1463.67 874.318C1376.61 874.318 1295.14 852.685 1225.45 815.034C1202.77 802.78 1174.13 807.821 1156.6 826.724C1077.03 912.546 957.638 967.105 824.167 967.105C691.541 967.105 572.816 913.234 493.245 828.348C431.993 884.049 355.333 925.856 269.538 948.091C174.757 1050.24 32.6003 1115.18 -126.313 1115.18C-322.327 1115.18 -492.847 1016.39 -580.411 870.81C-648.234 864.109 -711.679 844.219 -767.548 814.034C-790.227 801.78 -818.869 806.821 -836.395 825.724C-915.97 911.546 -1035.36 966.105 -1168.83 966.105C-1326.63 966.105 -1464.75 889.847 -1540.65 775.826Z" fill="#3E9CA1"/>
</svg>
