<svg width="1440" height="619" viewBox="0 0 1440 619" fill="none" xmlns="http://www.w3.org/2000/svg">
<path fill-rule="evenodd" clip-rule="evenodd" d="M438.862 476.442C469.659 457.652 516.56 463.469 541.89 489.314C574.129 522.209 615.557 542.131 660.815 542.458C702.102 542.757 740.332 526.703 771.396 499.265C796.05 477.489 836.376 474.126 864.698 491.052C890.989 506.764 920.505 515.677 951.718 515.903C975.84 516.078 998.991 511.049 1020.46 501.679C1046.26 490.417 1078.34 494.772 1098.75 514.272C1136.29 550.128 1183.47 571.642 1234.77 572.013C1357.93 572.904 1458.25 451.641 1458.85 301.165C1459.44 150.688 1360.09 27.9804 1236.94 27.0891C1198.75 26.8127 1162.75 38.2836 1131.25 58.7301C1107.52 74.1282 1074.97 73.1595 1051.67 56.9757C1022.73 36.8776 989.305 25.2953 953.667 25.0374C902.961 24.6704 856.551 47.2923 821.053 84.9082C798.551 108.752 758.62 114.201 728.874 100.194C708.302 90.5067 685.976 85.1242 662.631 84.9552C638.964 84.7839 616.301 89.9862 595.416 99.6262C562.861 114.653 516.627 107.051 493.812 79.2573C455.356 32.4079 401.564 3.11322 341.929 2.68164C290.469 2.30922 243.189 23.4906 206.246 59.0484C195.78 69.1218 180.043 71.5274 166.014 67.6238C158.485 65.5288 150.771 64.415 142.914 64.3581C58.5512 63.7476 -10.323 185.238 -10.9206 335.715C-11.5182 486.191 56.3871 608.671 140.75 609.282C186.399 609.612 227.512 574.194 255.728 517.777C263.34 502.557 281.261 495.078 297.827 499.121C311.432 502.443 325.514 504.235 339.937 504.34C375.603 504.598 409.261 494.502 438.862 476.442Z" fill="#3E9CA1"/>
</svg>
