<svg width="1681" height="608" viewBox="0 0 1681 608" fill="none" xmlns="http://www.w3.org/2000/svg">
<path fill-rule="evenodd" clip-rule="evenodd" d="M528.355 466.261C556.913 448.472 598.67 453.921 622.394 477.86C660.464 516.275 711.709 539.963 768.164 540.32C819.654 540.646 866.985 521.512 904.058 489.368C927.022 469.455 962.954 466.25 989.001 482.016C1022.01 501.998 1060.11 513.509 1100.73 513.766C1132.44 513.967 1162.68 507.286 1190.22 495.034C1213.74 484.569 1242.37 488.557 1261.53 505.808C1305.55 545.446 1362.29 569.483 1424.32 569.875C1565.11 570.767 1679.79 449.504 1680.48 299.027C1681.16 148.551 1567.58 25.8427 1426.79 24.9514C1379.22 24.6502 1334.62 38.2981 1296.4 62.3087C1274.56 76.026 1245.61 75.2006 1224.2 60.7427C1189.08 37.023 1147.53 23.1823 1102.95 22.9001C1041.05 22.5082 984.744 48.3349 943.253 90.6428C921.995 112.318 886.358 117.549 859.123 104.024C832.088 90.5972 801.989 83.0185 770.241 82.8175C737.401 82.6096 706.252 90.3181 678.377 104.27C648.433 119.257 607.25 111.987 585.546 86.4173C541.202 34.1761 476.194 1.0034 403.614 0.543933C343.126 0.161012 287.689 22.5648 244.956 59.9535C235.04 68.6286 220.99 70.8368 208.348 67.0667C197.904 63.9523 187.125 62.2901 176.101 62.2203C79.6567 61.6097 0.919406 183.1 0.236239 333.577C-0.446928 484.053 77.1827 606.534 173.627 607.144C226.746 607.48 274.494 570.777 306.787 512.591C314.528 498.644 331.051 491.684 346.566 495.468C364.16 499.758 382.493 502.083 401.336 502.202C447.816 502.496 491.313 489.336 528.355 466.261Z" fill="#3E9CA1"/>
</svg>
