<svg width="1291" height="483" viewBox="0 0 1291 483" fill="none" xmlns="http://www.w3.org/2000/svg">
<path fill-rule="evenodd" clip-rule="evenodd" d="M1068.89 7.53294C1191.21 8.30732 1289.9 114.922 1289.3 245.663C1288.71 376.405 1189.07 481.764 1066.74 480.99C1027.53 480.741 990.754 469.62 958.894 450.316C936.804 436.931 907.865 437.404 885.904 450.92C856.331 469.122 821.981 479.44 785.377 479.208C729.619 478.856 679.314 454.09 643.29 414.45C623.996 393.219 591.661 385.329 564.284 393.768C547.563 398.922 529.876 401.633 511.584 401.517C482.774 401.335 455.526 394.16 431.241 381.506C404.63 367.64 369.308 370.526 346.343 389.765C309.708 420.456 262.902 438.724 211.975 438.402C95.2198 437.663 1.0141 339.492 1.56054 219.131C2.10698 98.7701 97.1986 1.79756 213.954 2.53668C255.408 2.7991 294.019 15.3438 326.556 36.8032C351.681 53.374 387.248 52.3757 412.021 35.3724C441.241 15.3174 476.057 3.7799 513.389 4.01623C559.493 4.30809 601.597 22.5076 633.956 52.4082C655.075 71.9232 687.92 77.8243 714.468 66.8916C737.059 57.5883 761.631 52.5575 787.313 52.7201C812.75 52.8811 837.052 58.1227 859.381 67.5394C883.13 77.5551 911.777 73.955 931.541 57.4704C969.399 25.8922 1017.11 7.20517 1068.89 7.53294Z" fill="#52BDC2"/>
</svg>
