<svg width="2636" height="1115" viewBox="0 0 2636 1115" fill="none" xmlns="http://www.w3.org/2000/svg">
<rect width="2636" height="1115" fill="#CDCDCD"/>
<path fill-rule="evenodd" clip-rule="evenodd" d="M1095.35 775.826C1079.18 751.548 1046.42 742.044 1020.07 752.401C967.065 959.681 761.81 1114.18 516.687 1114.18C231.329 1114.18 0 904.798 0 646.513C0 480.12 96.0071 334.023 240.617 251.129C318.541 102.924 490.028 0 689.052 0C880.034 0 1045.66 94.7752 1127.59 233.391C1144.94 262.744 1186.13 272.671 1214.74 254.115C1285.85 207.983 1373 180.827 1467.17 180.827C1536.85 180.827 1602.69 195.696 1661.03 222.12C1684.6 232.797 1712.98 225.855 1729.12 205.63C1813.66 99.7057 1951.27 30.7743 2106.67 30.7743C2202.3 30.7743 2291.2 56.8818 2365.14 101.652C2450.84 38.8328 2561.39 1 2682.05 1C2764.96 1 2843.08 18.8589 2911.66 50.4103C3035.47 84.0121 3139.75 158.514 3205.35 256.582C3206.15 256.114 3206.95 255.625 3207.74 255.115C3278.85 208.983 3366 181.827 3460.17 181.827C3529.85 181.827 3595.69 196.696 3654.03 223.12C3677.6 233.797 3705.98 226.855 3722.12 206.63C3806.66 100.706 3944.27 31.7743 4099.67 31.7743C4208.15 31.7743 4307.97 65.37 4387.11 121.694C4405.68 134.91 4430.76 135.429 4449.72 122.777C4535.44 65.578 4641.37 31.7733 4756.03 31.7733C5041.39 31.7733 5272.72 241.154 5272.72 499.439C5272.72 757.724 5041.39 967.105 4756.03 967.105C4612.71 967.105 4483.02 914.289 4389.42 828.989C4372.53 813.598 4347.6 810.267 4327.23 820.62C4259.95 854.817 4182.32 874.318 4099.67 874.318C4012.61 874.318 3931.14 852.685 3861.45 815.034C3838.77 802.78 3810.13 807.821 3792.6 826.724C3713.03 912.546 3593.64 967.105 3460.17 967.105C3327.54 967.105 3208.82 913.234 3129.24 828.348C3067.99 884.049 2991.33 925.856 2905.54 948.091C2810.76 1050.24 2668.6 1115.18 2509.69 1115.18C2313.67 1115.18 2143.15 1016.39 2055.59 870.81C1987.77 864.109 1924.32 844.219 1868.45 814.034C1845.77 801.78 1817.13 806.821 1799.6 825.724C1720.03 911.546 1600.64 966.105 1467.17 966.105C1309.37 966.105 1171.25 889.847 1095.35 775.826Z" fill="#3E9CA1"/>
</svg>
