<svg width="1329" height="483" viewBox="0 0 1329 483" fill="none" xmlns="http://www.w3.org/2000/svg">
<path fill-rule="evenodd" clip-rule="evenodd" d="M811.898 371.492C821.909 373.394 832.214 374.387 842.736 374.387C862.434 374.387 881.372 370.908 899.042 364.495C928.435 353.826 965.524 361.188 987.059 383.86C1023.17 421.882 1073.53 445.477 1129.22 445.477C1239.1 445.477 1328.17 353.652 1328.17 240.381C1328.17 127.109 1239.1 35.2845 1129.22 35.2845C1098.53 35.2845 1069.46 42.4493 1043.5 55.2451C1015.26 69.1689 977.486 63.6108 953.835 42.8175C923.616 16.2504 884.919 0.298828 842.736 0.298828C791.19 0.298828 744.85 24.1168 712.823 62.0171C692.931 85.5576 657.478 96.0815 627.82 87.6991C612.459 83.3573 596.325 81.0442 579.687 81.0442C566.172 81.0442 552.991 82.5702 540.286 85.4698C515.898 91.0359 489.037 83.696 471.933 65.4412C434.221 25.1902 382.152 0.299928 324.645 0.299928C276.348 0.299928 231.888 17.8559 196.545 47.3227C185.567 45.0171 174.221 43.8087 162.611 43.8087C65.959 43.8087 -12.3926 127.551 -12.3926 230.853C-12.3926 334.154 65.959 417.897 162.611 417.897C179.68 417.897 196.179 415.285 211.776 410.414C244.305 432.849 283.052 445.87 324.645 445.87C350.057 445.87 374.406 441.01 396.924 432.112C420.315 422.869 448.002 427.156 467.684 442.815C498.953 467.691 537.711 482.412 579.687 482.412C640.668 482.412 694.859 451.342 729.158 403.204C746.994 378.173 781.704 365.755 811.898 371.492Z" fill="#99BE6A"/>
</svg>
